<mxfile host="app.diagrams.net" modified="2020-08-25T02:28:37.081Z" agent="5.0 (Windows NT 10.0; Win64; x64) AppleWebKit/537.36 (KHTML, like Gecko) Chrome/84.0.4147.135 Safari/537.36" etag="AJvyNffCXT349BUfmE4V" version="13.6.5" type="github">
  <diagram id="EJmdpYaehnNbIZeYtb2u" name="Page-1">
    <mxGraphModel dx="1422" dy="882" grid="1" gridSize="10" guides="1" tooltips="1" connect="1" arrows="1" fold="1" page="1" pageScale="1" pageWidth="850" pageHeight="1100" math="0" shadow="0">
      <root>
        <mxCell id="0" />
        <mxCell id="1" parent="0" />
        <mxCell id="CWz5suc1rSdu7Rf-RqJa-2" value="hardware" style="rounded=1;whiteSpace=wrap;html=1;" vertex="1" parent="1">
          <mxGeometry x="210" y="740" width="490" height="60" as="geometry" />
        </mxCell>
        <mxCell id="CWz5suc1rSdu7Rf-RqJa-3" value="HOST&amp;nbsp; OS" style="rounded=1;whiteSpace=wrap;html=1;" vertex="1" parent="1">
          <mxGeometry x="210" y="660" width="490" height="60" as="geometry" />
        </mxCell>
        <mxCell id="CWz5suc1rSdu7Rf-RqJa-5" value="App 1" style="rounded=1;whiteSpace=wrap;html=1;" vertex="1" parent="1">
          <mxGeometry x="230" y="460" width="120" height="60" as="geometry" />
        </mxCell>
        <mxCell id="CWz5suc1rSdu7Rf-RqJa-7" value="App 2" style="rounded=1;whiteSpace=wrap;html=1;" vertex="1" parent="1">
          <mxGeometry x="580" y="460" width="120" height="60" as="geometry" />
        </mxCell>
        <mxCell id="CWz5suc1rSdu7Rf-RqJa-10" value="Docker daemon" style="rounded=1;whiteSpace=wrap;html=1;" vertex="1" parent="1">
          <mxGeometry x="220" y="620" width="470" height="30" as="geometry" />
        </mxCell>
        <mxCell id="CWz5suc1rSdu7Rf-RqJa-11" value="Bin/Libs" style="rounded=0;whiteSpace=wrap;html=1;" vertex="1" parent="1">
          <mxGeometry x="230" y="520" width="120" height="60" as="geometry" />
        </mxCell>
        <mxCell id="CWz5suc1rSdu7Rf-RqJa-12" value="image" style="rounded=0;whiteSpace=wrap;html=1;" vertex="1" parent="1">
          <mxGeometry x="580" y="540" width="120" height="20" as="geometry" />
        </mxCell>
        <mxCell id="CWz5suc1rSdu7Rf-RqJa-14" value="Bin/Libs" style="rounded=0;whiteSpace=wrap;html=1;" vertex="1" parent="1">
          <mxGeometry x="580" y="520" width="120" height="20" as="geometry" />
        </mxCell>
        <mxCell id="CWz5suc1rSdu7Rf-RqJa-15" value="image" style="rounded=0;whiteSpace=wrap;html=1;" vertex="1" parent="1">
          <mxGeometry x="580" y="560" width="120" height="20" as="geometry" />
        </mxCell>
        <mxCell id="CWz5suc1rSdu7Rf-RqJa-16" value="image" style="rounded=0;whiteSpace=wrap;html=1;" vertex="1" parent="1">
          <mxGeometry x="580" y="580" width="120" height="20" as="geometry" />
        </mxCell>
      </root>
    </mxGraphModel>
  </diagram>
</mxfile>
